<svg version="1.2" xmlns="http://www.w3.org/2000/svg" viewBox="0 0 64 64" width="64" height="64">
	<title>template</title>
	<style>
		.s0 { fill: #190c31 } 
	</style>
	<filter id="f0">
		<feFlood flood-color="#9c9c9c" flood-opacity="1" />
		<feBlend mode="normal" in2="SourceGraphic"/>
		<feComposite in2="SourceAlpha" operator="in" />
	</filter>
	<g id="acorn" filter="url(#f0)">
		<path id="Layer" class="s0" d="m31.2 28.4c-6.4-3.1-10.6-3.5-12.3-1-2.8 4.1-2.8 10.1-1.6 14.7 0.8 3.3 2.6 5.9 5.2 8.2 2.4 1.5 6.5 1 9 0.2 5.2-1.6 8.9-4.8 11.8-9.3 2.6-4.4-2.4-7.5-5.4-9.5-0.9-0.7-5.7-2.9-6.7-3.3z"/>
		<path id="Layer" class="s0" d="m46.5 36.5c-0.2 1.7-2 1.8-2 1.8 0.5-2-1.8-4.1-4.5-5.9-4.1-2.6-8.7-4.9-12.9-6.2-3.6-0.9-6.6-1.9-8 0.4 0 0-1-1.5 0-2.7 3.9-5 11.2-6.6 17.2-4.3 0.5-3.1 3.7-6.7 5.3-6.3 1.7 0.6 2.7 2.9 2.6 3.3-0.1 0.5-3 0.3-4.1 2.1-0.5 0.8-0.8 1.6-1.1 2.2 5.1 2.8 8.5 8.3 7.5 15.6z"/>
	</g>
</svg>